<svg width="33" height="32" viewBox="0 0 33 32" fill="none" xmlns="http://www.w3.org/2000/svg">
<path d="M6.16903 22.0001V26.6667C6.16903 27.374 6.44482 28.0523 6.93572 28.5524C7.42662 29.0525 8.09243 29.3334 8.78668 29.3334H24.4926C25.1868 29.3334 25.8526 29.0525 26.3435 28.5524C26.8344 28.0523 27.1102 27.374 27.1102 26.6667V22.0001M4.86021 18.6667V17.3334C4.86021 16.6262 5.13599 15.9479 5.6269 15.4478C6.1178 14.9477 6.78361 14.6667 7.47785 14.6667H25.8014C26.4956 14.6667 27.1614 14.9477 27.6523 15.4478C28.1432 15.9479 28.419 16.6262 28.419 17.3334V18.6667M16.6396 10.6667V14.6667M16.6396 10.6667C18.2914 10.6667 19.2573 9.37608 19.2573 7.16675C19.2573 4.95741 16.6396 2.66675 16.6396 2.66675C16.6396 2.66675 14.022 4.95741 14.022 7.16675C14.022 9.37608 14.9879 10.6667 16.6396 10.6667Z" stroke="#8C8C8C" stroke-width="2" stroke-linecap="round" stroke-linejoin="round"/>
<path d="M4.86021 18.6667C4.86021 19.7276 5.27389 20.745 6.01024 21.4952C6.7466 22.2453 7.74531 22.6667 8.78668 22.6667C9.82804 22.6667 10.8268 22.2453 11.5631 21.4952C12.2995 20.745 12.7131 19.7276 12.7131 18.6667C12.7131 19.7276 13.1268 20.745 13.8632 21.4952C14.5995 22.2453 15.5983 22.6667 16.6396 22.6667C17.681 22.6667 18.6797 22.2453 19.4161 21.4952C20.1524 20.745 20.5661 19.7276 20.5661 18.6667C20.5661 19.7276 20.9798 20.745 21.7161 21.4952C22.4525 22.2453 23.4512 22.6667 24.4926 22.6667C25.5339 22.6667 26.5326 22.2453 27.269 21.4952C28.0053 20.745 28.419 19.7276 28.419 18.6667" stroke="#8C8C8C" stroke-width="2" stroke-linecap="round" stroke-linejoin="round"/>
</svg>
