<svg width="32" height="32" viewBox="0 0 32 32" fill="none" xmlns="http://www.w3.org/2000/svg">
<path d="M22.8341 2.66675H9.74587C6.13165 2.66675 3.20175 5.65152 3.20175 9.33341V22.6667C3.20175 26.3486 6.13165 29.3334 9.74587 29.3334H22.8341C26.4483 29.3334 29.3782 26.3486 29.3782 22.6667V9.33341C29.3782 5.65152 26.4483 2.66675 22.8341 2.66675Z" stroke="#8C8C8C" stroke-width="2" stroke-linecap="round" stroke-linejoin="round"/>
<path d="M23.4885 8.66675H23.5016M21.5253 15.1601C21.6868 16.2697 21.5008 17.403 20.9936 18.3988C20.4864 19.3945 19.684 20.202 18.7004 20.7063C17.7168 21.2107 16.6021 21.3862 15.5149 21.208C14.4277 21.0298 13.4234 20.5069 12.6447 19.7136C11.8661 18.9204 11.3528 17.8972 11.1778 16.7897C11.0029 15.6822 11.1752 14.5466 11.6703 13.5446C12.1654 12.5426 12.958 11.7251 13.9354 11.2084C14.9128 10.6917 16.0253 10.5022 17.1146 10.6667C18.2256 10.8346 19.2543 11.362 20.0485 12.1712C20.8428 12.9803 21.3605 14.0282 21.5253 15.1601Z" stroke="#8C8C8C" stroke-width="2" stroke-linecap="round" stroke-linejoin="round"/>
</svg>
