<svg width="32" height="32" viewBox="0 0 32 32" fill="none" xmlns="http://www.w3.org/2000/svg">
<path d="M8.77404 12.7344C9.93895 12.5338 10.9874 11.8947 11.7115 10.9438C12.4357 9.99283 12.7828 8.79945 12.684 7.60012C12.5852 6.40078 12.0477 5.28302 11.1781 4.46834C10.3085 3.65366 9.17018 3.20152 7.98875 3.20152C6.80732 3.20152 5.66901 3.65366 4.79938 4.46834C3.92976 5.28302 3.39229 6.40078 3.29349 7.60012C3.19469 8.79945 3.54177 9.99283 4.26595 10.9438C4.99013 11.8947 6.03855 12.5338 7.20346 12.7344V19.2656C6.03855 19.4662 4.99013 20.1053 4.26595 21.0562C3.54177 22.0071 3.19469 23.2005 3.29349 24.3999C3.39229 25.5992 3.92976 26.717 4.79938 27.5316C5.66901 28.3463 6.80732 28.7985 7.98875 28.7985C9.17018 28.7985 10.3085 28.3463 11.1781 27.5316C12.0477 26.717 12.5852 25.5992 12.684 24.3999C12.7828 23.2005 12.4357 22.0071 11.7115 21.0562C10.9874 20.1053 9.93895 19.4662 8.77404 19.2656V12.7344ZM7.98875 11.2C7.15566 11.2 6.35669 10.8628 5.7676 10.2627C5.17852 9.66261 4.84757 8.84868 4.84757 7.99999C4.84757 7.15129 5.17852 6.33736 5.7676 5.73724C6.35669 5.13713 7.15566 4.79999 7.98875 4.79999C8.82184 4.79999 9.62081 5.13713 10.2099 5.73724C10.799 6.33736 11.1299 7.15129 11.1299 7.99999C11.1299 8.84868 10.799 9.66261 10.2099 10.2627C9.62081 10.8628 8.82184 11.2 7.98875 11.2ZM11.1299 24C11.1299 24.8487 10.799 25.6626 10.2099 26.2627C9.62081 26.8628 8.82184 27.2 7.98875 27.2C7.15566 27.2 6.35669 26.8628 5.7676 26.2627C5.17852 25.6626 4.84757 24.8487 4.84757 24C4.84757 23.1513 5.17852 22.3374 5.7676 21.7372C6.35669 21.1371 7.15566 20.8 7.98875 20.8C8.82184 20.8 9.62081 21.1371 10.2099 21.7372C10.799 22.3374 11.1299 23.1513 11.1299 24ZM17.6416 10.9664C17.789 11.1166 17.989 11.201 18.1976 11.201C18.4061 11.201 18.6061 11.1166 18.7536 10.9664C18.901 10.8162 18.9839 10.6124 18.9839 10.4C18.9839 10.1875 18.901 9.9838 18.7536 9.83358L16.9521 7.99999H19.7682C20.8095 7.99999 21.8082 8.42141 22.5446 9.17156C23.2809 9.9217 23.6946 10.9391 23.6946 12V19.2C22.5142 19.2018 21.3774 19.6549 20.5092 20.4696C19.641 21.2844 19.1047 22.4015 19.0063 23.5999C18.9079 24.7982 19.2546 25.9906 19.9778 26.941C20.7011 27.8913 21.7482 28.5305 22.9119 28.7321C24.0757 28.9336 25.2713 28.6828 26.2622 28.0293C27.2531 27.3758 27.9672 26.3672 28.263 25.203C28.5589 24.0388 28.415 22.8039 27.8598 21.7427C27.3047 20.6814 26.3788 19.871 25.2652 19.472V12C25.2652 10.5148 24.6861 9.09039 23.6552 8.04019C22.6243 6.98998 21.2261 6.39999 19.7682 6.39999H16.9521L18.7536 4.56639C18.8266 4.492 18.8845 4.4037 18.924 4.30652C18.9635 4.20934 18.9839 4.10518 18.9839 3.99999C18.9839 3.89479 18.9635 3.79063 18.924 3.69345C18.8845 3.59627 18.8266 3.50797 18.7536 3.43358C18.6805 3.3592 18.5939 3.3002 18.4985 3.25995C18.4031 3.21969 18.3008 3.19897 18.1976 3.19897C18.0943 3.19897 17.9921 3.21969 17.8967 3.25995C17.8013 3.3002 17.7146 3.3592 17.6416 3.43358L14.5004 6.63358C14.4273 6.7079 14.3693 6.79618 14.3297 6.89337C14.2901 6.99056 14.2697 7.09476 14.2697 7.19999C14.2697 7.30521 14.2901 7.40941 14.3297 7.5066C14.3693 7.60379 14.4273 7.69207 14.5004 7.76639L17.6416 10.9664ZM26.8358 24C26.8358 24.8487 26.5049 25.6626 25.9158 26.2627C25.3267 26.8628 24.5277 27.2 23.6946 27.2C22.8615 27.2 22.0626 26.8628 21.4735 26.2627C20.8844 25.6626 20.5535 24.8487 20.5535 24C20.5535 23.1513 20.8844 22.3374 21.4735 21.7372C22.0626 21.1371 22.8615 20.8 23.6946 20.8C24.5277 20.8 25.3267 21.1371 25.9158 21.7372C26.5049 22.3374 26.8358 23.1513 26.8358 24Z" fill="#8C8C8C"/>
</svg>
