<svg width="30" height="30" viewBox="0 0 30 30" fill="none" xmlns="http://www.w3.org/2000/svg">
<path d="M10.0828 17.1477L1.57452 25.656" stroke="white" stroke-width="2"/>
<path d="M12.8522 19.9189L4.34387 28.4273" stroke="white" stroke-width="2"/>
<path d="M4.345 28.4258C3.97761 28.7932 3.47932 28.9996 2.95976 28.9996C2.4402 28.9996 1.94191 28.7932 1.57452 28.4258" stroke="white" stroke-width="2" stroke-linecap="round" stroke-linejoin="round"/>
<path d="M1.5741 25.6558C1.20672 26.0231 1.00032 26.5214 1.00032 27.041C1.00032 27.5606 1.20672 28.0588 1.5741 28.4262" stroke="white" stroke-width="2" stroke-linecap="round" stroke-linejoin="round"/>
<path d="M29.0005 9.81559C29.0005 10.9733 28.7725 12.1196 28.3295 13.1892C27.8864 14.2587 27.2371 15.2305 26.4185 16.0492C25.5999 16.8678 24.628 17.5171 23.5585 17.9601C22.4889 18.4032 21.3426 18.6312 20.1849 18.6312C19.0272 18.6312 17.8809 18.4032 16.8113 17.9601C15.7418 17.5171 14.77 16.8678 13.9513 16.0492C13.1327 15.2305 12.4834 14.2587 12.0404 13.1892C11.5973 12.1196 11.3693 10.9733 11.3693 9.81559C11.3693 7.47755 12.2981 5.23527 13.9514 3.58203C15.6046 1.92878 17.8469 1 20.1849 1C21.3426 1 22.4889 1.22802 23.5585 1.67105C24.628 2.11407 25.5999 2.76342 26.4185 3.58203C27.2371 4.40063 27.8864 5.37245 28.3295 6.44201C28.7725 7.51157 29.0005 8.65791 29.0005 9.81559Z" stroke="white" stroke-width="2" stroke-linecap="round" stroke-linejoin="round"/>
<path d="M10.0816 17.1477L12.8521 19.9182" stroke="white" stroke-width="2" stroke-linecap="round" stroke-linejoin="round"/>
<path d="M11.5001 10.4833L13.9836 7.99976" stroke="white" stroke-width="2" stroke-linecap="round" stroke-linejoin="round"/>
<path d="M7.71817 19.5122L10.4886 22.2827" stroke="white" stroke-width="2" stroke-linecap="round" stroke-linejoin="round"/>
<path d="M25.0816 9.81641C25.0816 11.1153 24.5656 12.361 23.6471 13.2795C22.7287 14.198 21.483 14.714 20.1841 14.714" stroke="white" stroke-width="2" stroke-linecap="round" stroke-linejoin="round"/>
</svg>
